<?xml version="1.0" standalone="no"?>
<!DOCTYPE svg PUBLIC "-//W3C//DTD SVG 20010904//EN"
 "http://www.w3.org/TR/2001/REC-SVG-20010904/DTD/svg10.dtd">
<svg version="1.0" xmlns="http://www.w3.org/2000/svg"
 width="784.000000pt" height="784.000000pt" viewBox="0 0 784.000000 784.000000"
 preserveAspectRatio="xMidYMid meet">

<g transform="translate(0.000000,784.000000) scale(0.100000,-0.100000)"
fill="#000000" stroke="none">
<path d="M3148 5473 l-708 -3 2 -1948 2 -1947 6 1932 c3 1062 9 1935 13 1940
5 4 356 8 780 8 851 -1 884 -3 1065 -64 274 -93 438 -186 627 -355 50 -45 83
-72 75 -61 -8 11 -35 38 -60 61 -291 269 -642 420 -1010 436 -47 2 -403 3
-792 1z"/>
<path d="M5143 4923 c48 -2 125 -2 170 0 45 1 6 3 -88 3 -93 0 -130 -2 -82 -3z"/>
<path d="M5735 4918 c197 -5 302 -5 309 2 7 7 -93 9 -300 8 l-309 -1 300 -9z"/>
<path d="M6236 4310 c8 -43 14 -51 14 -19 0 13 -5 31 -10 39 -7 11 -8 5 -4
-20z"/>
<path d="M6252 4185 c0 -16 2 -22 5 -12 2 9 2 23 0 30 -3 6 -5 -1 -5 -18z"/>
<path d="M6262 4065 c0 -16 2 -22 5 -12 2 9 2 23 0 30 -3 6 -5 -1 -5 -18z"/>
<path d="M6272 3915 c0 -16 2 -22 5 -12 2 9 2 23 0 30 -3 6 -5 -1 -5 -18z"/>
<path d="M6263 3775 c0 -27 2 -38 4 -22 2 15 2 37 0 50 -2 12 -4 0 -4 -28z"/>
<path d="M6246 3658 c-84 -755 -586 -1467 -1284 -1822 -220 -111 -393 -172
-628 -220 -192 -40 -290 -46 -736 -47 -233 -1 -436 -5 -453 -9 -43 -11 824
-11 915 0 307 37 363 48 545 108 213 71 391 153 526 245 31 20 59 37 62 37 13
0 189 138 287 225 235 208 427 462 561 739 120 251 193 502 214 734 8 88 0 96
-9 10z"/>
<path d="M3017 3512 c-83 -16 129 -20 1066 -19 595 1 1116 -2 1158 -7 65 -6
77 -5 82 8 6 14 -79 16 -886 18 -1226 4 -1400 3 -1420 0z"/>
<path d="M1628 1553 c23 -2 61 -2 85 0 23 2 4 4 -43 4 -47 0 -66 -2 -42 -4z"/>
<path d="M1928 1553 c72 -2 192 -2 265 0 72 1 13 3 -133 3 -146 0 -205 -2
-132 -3z"/>
<path d="M2353 1553 c15 -2 37 -2 50 0 12 2 0 4 -28 4 -27 0 -38 -2 -22 -4z"/>
</g>
</svg>
